<svg xmlns="http://www.w3.org/2000/svg" width="220" height="50" viewBox="0 0 220 50">
  <defs>
    <linearGradient id="discord-grad" x1="0%" y1="0%" x2="100%" y2="100%">
      <stop offset="0%" stop-color="#5865F2" />
      <stop offset="100%" stop-color="#404EED" />
    </linearGradient>
    <filter id="shadow" x="-10%" y="-10%" width="120%" height="120%">
      <feDropShadow dx="0" dy="4" stdDeviation="4" flood-color="#000000" flood-opacity="0.25"/>
    </filter>
  </defs>
  <rect width="220" height="50" rx="25" fill="url(#discord-grad)" filter="url(#shadow)" />
  <!-- Discord Icon -->
  <g transform="translate(25, 13) scale(1.0)">
    <path fill="#FFFFFF" d="M18.97 4.97a15.7 15.7 0 0 0-3.86-1.2.08.08 0 0 0-.08.04c-.33.6-.7 1.25-.96 1.87a14.47 14.47 0 0 0-4.14 0 10.3 10.3 0 0 0-.97-1.87.08.08 0 0 0-.08-.04 15.7 15.7 0 0 0-3.86 1.2.08.08 0 0 0-.03.03C1.2 10.96.16 16.8.6 22.56a.08.08 0 0 0 .03.05 15.82 15.82 0 0 0 4.77 2.42.08.08 0 0 0 .09-.03c.36-.5.68-1.03.95-1.59a.08.08 0 0 0-.04-.11 10.38 10.38 0 0 1-2.22-1.06.08.08 0 0 1-.01-.13c.15-.11.3-.23.45-.35a.08.08 0 0 1 .08-.01c3.12 1.43 6.5 2.22 9.8 2.22 3.3 0 6.68-.8 9.8-2.22a.08.08 0 0 1 .08.01c.15.12.3.24.45.35a.08.08 0 0 1-.01.13 10.33 10.33 0 0 1-2.22 1.06.08.08 0 0 0-.04.11c.27.56.59 1.09.95 1.59a.08.08 0 0 0 .09.03 15.82 15.82 0 0 0 4.77-2.42.08.08 0 0 0 .03-.05c.53-6.52-.87-12.3-4.38-17.56a.08.08 0 0 0-.03-.03ZM7.53 16.5c-.95 0-1.74-.88-1.74-1.95s.76-1.95 1.74-1.95c.99 0 1.76.88 1.76 1.95s-.77 1.95-1.76 1.95Zm8.94 0c-.95 0-1.74-.88-1.74-1.95s.76-1.95 1.74-1.95c.99 0 1.76.88 1.76 1.95s-.77 1.95-1.76 1.95Z"/>
  </g>
  <text x="132" y="31" font-family="'Segoe UI', Roboto, Helvetica, Arial, sans-serif" font-size="16" font-weight="bold" fill="#FFFFFF" text-anchor="middle">Invite Bot</text>
</svg>
